<?xml version="1.0" encoding="utf-8"?>
<!-- Generator: Adobe Illustrator 22.0.0, SVG Export Plug-In . SVG Version: 6.00 Build 0)  -->
<svg version="1.1" id="Lyer" xmlns="http://www.w3.org/2000/svg" xmlns:xlink="http://www.w3.org/1999/xlink" x="0px" y="0px"
	 viewBox="0 0 320 200" style="enable-background:new 0 0 320 200;" xml:space="preserve">
<style type="text/css">
	.st0{fill:#998675;}
	.st1{fill:#736357;}
	.st2{fill:#4D4D4D;}
	.st3{fill:#C7B299;}
	.st4{fill:#FFFFFF;stroke:#000000;stroke-width:0.25;stroke-miterlimit:10;}
	.st5{fill:none;stroke:#000000;stroke-width:0.25;stroke-miterlimit:10;}
	.st6{fill:#FFFFFF;stroke:#000000;stroke-width:0.2;stroke-miterlimit:10;}
	.st7{fill:none;stroke:#000000;stroke-width:0.2;stroke-miterlimit:10;}
</style>
<g id="_x32__1_">
	<path class="st0" d="M165.5,189.7c-2.5,0-4.8-1.2-5.7-3.1c-1.6-3.5-0.8-7.2,2.3-10.6c8-8.5,30.9-13.9,53.4-12.7
		c4.9,0.3,12-1.1,16.4-4.4c2.4-1.8,3.6-3.8,3.6-6.2c0-5.2-1.7-8.8-5-10.7c-5.7-3.3-12.5-2.7-16-1.8c-3.2,0.8-5.9-0.5-6.9-3
		c-1-2.5,3.3-5.7,6.4-6.5c1.9-0.5,11.9-3.3,23.6,3.5c6.6,3.8,10,10.1,10,18.5c0,5.1-2.6,9.7-7.5,13.3c-6.4,4.7-16.4,7.4-25.5,6.9
		c-21.1-1.2-38.7,4.5-42.8,8.8c-0.9,0.9-0.7,1.3-0.6,1.4c1.2,2.5-0.4,5.3-3.6,6.2C166.9,189.6,166.2,189.7,165.5,189.7z"/>
	<g>
		<path class="st1" d="M194.7,140.7c15.5,0.4,7.1,36.3-1.9,46c-7.8,8.4-21.5,7.2-32.1,7.2c-11.5,0-24.9,2.5-32.9-7.2
			c-9.8-11.7-14.6-42.4-3.2-44.7c14.5-2.9-7.2-54.1-0.6-61.8c6.5-7.8,22.1-13.8,36.8-13.8c14.5,0,29.5,4.6,36.8,13.7
			S179.5,140.3,194.7,140.7z"/>
		<path class="st0" d="M181.2,133.3c-3.5,8.3-1.7,52.3-2.6,54.6c-1.4,3.6-5.7,3.2-7.8,2.9c-1.3-0.2-3-0.2-3.8-2
			c-0.3-0.6-0.5-1.4-0.6-2.4c-1-13.3-1.8-42.5-0.2-53c2-13.9-9.1-49.2,17.7-57c8.5-2.5,12.6,2.6,13.8,8.8
			C199.7,96,184.8,124.6,181.2,133.3z"/>
		<path class="st2" d="M181.5,194.2c0,3.9-19.5,3.9-19.5,0c0-4.9,2.4-6.8,5.2-5.6c1.3,0.6,2.8-0.7,4.5-0.7c1.3,0,2.7,1.1,3.8,0.8
			C179.6,187.9,181.5,188.9,181.5,194.2z"/>
		<path class="st0" d="M139.4,133.3c3.5,8.3,1.7,52.3,2.6,54.6c1.4,3.6,5.7,3.2,7.8,2.9c1.3-0.2,3-0.2,3.8-2
			c0.3-0.6,0.5-1.4,0.6-2.4c1-13.3,1.8-42.5,0.2-53c-2-13.9,9.1-49.2-17.7-57c-8.5-2.5-12.6,2.6-13.8,8.8
			C120.9,96,135.8,124.6,139.4,133.3z"/>
		<path class="st2" d="M139.1,194.2c0,3.9,19.5,3.9,19.5,0c0-4.9-2.4-6.8-5.2-5.6c-1.3,0.6-2.8-0.7-4.5-0.7c-1.3,0-2.7,1.1-3.8,0.8
			C141,187.9,139.1,188.9,139.1,194.2z"/>
		<path class="st3" d="M118.9,166.1c3.9,16.9-1.1,22.8,9.7,22.8s17.8-29,17.8-46.4s-12.9-20.7-23.1-17
			C113.2,129.4,115.5,151.4,118.9,166.1z"/>
		<path class="st2" d="M118,192.2c0,3.7,18.4,3.7,18.4,0c0-4.6-2.3-6.4-4.9-5.3c-1.3,0.5-2.7-0.7-4.3-0.7c-1.3,0-2.5,1-3.6,0.8
			C119.9,186.2,118,187.1,118,192.2z"/>
		<path class="st3" d="M201.5,166.1c-3.9,16.9,1.1,22.8-9.7,22.8c-10.9,0-17.8-29-17.8-46.4s12.9-20.7,23.1-17
			C207.2,129.4,204.9,151.4,201.5,166.1z"/>
		<path class="st2" d="M204.2,192.2c0,3.7-18.4,3.7-18.4,0c0-4.6,2.3-6.4,4.9-5.3c1.3,0.5,2.7-0.7,4.3-0.7c1.3,0,2.5,1,3.6,0.8
			C202.3,186.2,204.2,187.1,204.2,192.2z"/>
	</g>
	<g>
		<path class="st0" d="M200.1,45.6c-2.6-0.2-26.4-14.7-26.8-17.3C171.6,18,220.9-6.2,223.4,8C226.2,23.1,213.5,46.7,200.1,45.6z"/>
		<path class="st0" d="M124.4,45.6c2.6-0.2,26.4-14.7,26.8-17.3C152.8,18,103.6-6.2,101,8C98.3,23.1,110.9,46.7,124.4,45.6z"/>
		<path class="st3" d="M207.6,53.9c0,24.3-21.2,36.7-47.4,36.7s-47.4-12.4-47.4-36.7c0-25.2,21.2-36.7,47.4-36.7
			S207.6,28,207.6,53.9z"/>
		<path class="st4" d="M152.1,81.3c8.1,0,8.1-10,8.1-10s-0.3,10,8.1,10H152.1z"/>
		<path class="st4" d="M160.1,81.3c-1.7,0-2.7-1.9-1.7-3.4c1.8-2.9,1.8-6.7,1.8-6.7s-0.1,3.9,1.8,6.8c0.9,1.4-0.1,3.2-1.7,3.2H160.1
			z"/>
		<path class="st4" d="M152.1,81.3c8.1,0,8.1-10,8.1-10s-0.3,10,8.1,10c0,0-3.4,0-5.6-2.4c-2.4-2.7-2.4-7-2.4-7s0,4.3-2.6,7
			C155.4,81.3,152.1,81.3,152.1,81.3z"/>
		<path class="st2" d="M168.2,59.9c0,1-4,6.8-8,6.8c-4,0-8-5.8-8-6.8c0-2,3.6-3.6,8-3.6C164.6,56.3,168.2,57.9,168.2,59.9z"/>
		<g>
			<path class="st5" d="M115.3,73.7c2.1-6,15.9-6.5,30.9-1.1"/>
			<path class="st5" d="M119.9,80.1c0.8-4.8,12.2-6.9,25.6-4.8"/>
			<path class="st5" d="M111.7,65.3c3.3-6.2,19.4-4.1,36.1,4.7"/>
		</g>
		<g>
			<path class="st5" d="M205.5,74.4c-2.1-6-15.9-6.5-30.9-1.1"/>
			<path class="st5" d="M200.9,80.7c-0.8-4.8-12.2-6.9-25.6-4.8"/>
			<path class="st5" d="M209.2,66c-3.3-6.2-19.4-4.1-36.1,4.7"/>
		</g>
		<g>
			<path class="st6" d="M172.7,49.7c-0.2,2.1,0.7,0.4,5.7,1.6c4.6,1.1,11.9-0.2,11.9-1.5s-2.7-3.9-7.4-4.3
				C178.1,45.1,172.9,47.6,172.7,49.7z"/>
			<circle class="st2" cx="181.1" cy="49" r="3.5"/>
			<ellipse cx="181.1" cy="49" rx="0.9" ry="3.1"/>
		</g>
		<g>
			<path class="st6" d="M147.9,49.7c0.2,2.1-0.7,0.4-5.7,1.6c-4.6,1.1-11.9-0.2-11.9-1.5s2.7-3.9,7.4-4.3
				C142.5,45,147.7,47.5,147.9,49.7z"/>
			<circle class="st2" cx="139.5" cy="49" r="3.5"/>
			<ellipse cx="139.5" cy="49" rx="0.9" ry="3.1"/>
		</g>
		<g>
			<path class="st7" d="M129.5,50.1c0.2,1.7,8.5,2.2,18.5,1"/>
			<path class="st7" d="M190.4,50c-0.2,1.7-8.5,2.2-18.5,1"/>
		</g>
	</g>
</g>
</svg>
