<?xml version="1.0" encoding="utf-8"?>
<!-- Generator: Adobe Illustrator 22.0.0, SVG Export Plug-In . SVG Version: 6.00 Build 0)  -->
<svg version="1.1" id="Layer_1" xmlns="http://www.w3.org/2000/svg" xmlns:xlink="http://www.w3.org/1999/xlink" x="0px" y="0px"
	 viewBox="0 0 720 480" style="enable-background:new 0 0 720 480;" xml:space="preserve">
<style type="text/css">
	.st0{fill:#EAD2CF;}
	.st1{fill:#F0D8D4;}
	.st2{fill:#757B86;}
	.st3{fill:#FFFFFF;}
	.st4{fill:#E8D0CD;}
</style>
<path class="st0" d="M325.5,181.3l16.6,15.8c-2.9-14.5-10.6-26.5-19.1-39.1L325.5,181.3z"/>
<path class="st1" d="M395.3,165.7l3-20c0.2-8,0.6-16,0.5-24c-0.1-4.7-1.5-7.5-5.8-10.2c-5.3-3.3-9.5-1.8-14.3-0.3
	c-1.6,0.5-3.2,1-5,1.3c-5.1,1-10.8,1.8-15.6-0.6c-7.9-3.8-15.5-10-25.2-9.7c-1.7,0-3.4,0.3-4.9,1.1c-3.2,1.5-5,4.7-6,7.8
	c-2.2,6.8,0.1,12.7,0,19.5c-0.1,4.6-0.2,9.1-0.3,13.7l1.4,13.5c8.5,12.6,16.2,24.6,19.1,39.1l5.8,5.5l10.8,0.2l10.8,0.2l7.8-6.8
	C377.8,183,382.8,170.1,395.3,165.7z"/>
<path class="st0" d="M395.3,165.7c-12.5,4.4-17.5,17.3-18.1,30.4l15.5-13.7L395.3,165.7z"/>
<path class="st1" d="M326.2,144.3c-0.5-3.6-0.8-6.4-1-7.2c-0.2-0.8-0.6-1.7-1.4-1.9c-0.5-0.1-0.9,0-1.4,0.2
	c-3.5,1.2-4.6,3.5-7.5,5.3c1.1,2.6,7.8,23.7,9.6,23.8c0,0,6.7,0.1,6.7,0.1C329,164.5,327.3,152.5,326.2,144.3z"/>
<path class="st1" d="M393.6,145.5c0.4-2.5,1.1-5,2.5-7.8c0.7-1.3,2.2-2.9,3.6-2.1c0.4,0.2,0.7,0.6,0.9,0.9c1.4,1.9,2.5,4.2,4.4,5.8
	c-3.7,7.7-7.1,15.6-10.6,23.4l-6.7-0.1c1.6-4.3,3.8-8.8,4.7-13.3C393,149.8,393.2,147.6,393.6,145.5z"/>
<path class="st2" d="M324.6,150.9c-0.5-6.1-0.8-12.3-1.8-18.4c-1.3-8.1,3.3-16.3,8.2-23.1c0.8-1.1,1.7-2.3,3.2-2.6
	c1.9-0.5,3.8,0.6,5.4,1.7c5.4,3.5,17.7,8.1,17.7,8.1s12.9,0.7,19.1-0.4c4.3-0.8,10.1-3.8,14.4-1.2c3.5,2.1,4.3,8.4,5.6,12.1
	l-0.5,30.4l4.3-12.1c3.4-10.6,4.9-35.2,4.9-35.2s-16.7-17.9-26.8-16.2c3.6-0.6,10.1,0.6,13.7,0c-13.5-4.5-24.5-8.7-35.8-7.1
	c-11.2,1.6-21.8,6.2-30.6,12.6c-4,2.8-10,10.1-10,10.1S314.8,136,324.6,150.9z"/>
<path class="st3" d="M343.3,176.4c4.4,1.3,10.7,2.6,18.4,2.3c5.8-0.2,10.7-1.2,14.4-2.3c-1.2,2.4-2.5,4.7-3.7,7.1
	c-2,1.1-7.6,4-14.8,3c-3.7-0.5-6.5-1.9-8.3-3C347.3,181.1,345.3,178.8,343.3,176.4z"/>
<path class="st2" d="M330.2,144.8c0,0,11.1-5.7,20.8-3.1c2.3,3.2,0,7.7,0,7.7S349.7,141.5,330.2,144.8z"/>
<path class="st2" d="M389.8,144.4c0,0-11.1-5.7-20.8-3.1c-2.3,3.2,0,7.6,0,7.6S370.3,141,389.8,144.4z"/>
<path class="st4" d="M353.7,165.6l3.7,4.2c0.8,0.4,4,1.7,7.9,0.4c4.4-1.4,6.2-5.1,6.5-5.8c-1.4,3.5-2.9,7.1-4.3,10.6
	c-4-0.1-8-0.3-12-0.4C354.9,171.7,354.3,168.7,353.7,165.6z"/>
</svg>
